#N canvas 1003 178 673 563 10;
#X obj 30 48 tgl 15 0 empty empty empty 17 7 0 10 -262144 -1 -1 1 1
;
#X obj 66 493 env~;
#X floatatom 66 518 5 0 0 0 - - -, f 5;
#X floatatom 211 514 5 0 0 0 - - -, f 5;
#X floatatom 247 514 5 0 0 0 - - -, f 5;
#X obj 253 410 route 0 1 2;
#X floatatom 253 436 5 0 0 0 - - -, f 5;
#X floatatom 288 436 5 0 0 0 - - -, f 5;
#X floatatom 322 437 5 0 0 0 - - -, f 5;
#X obj 211 464 route 0;
#X obj 296 386 tgl 15 0 empty empty empty 17 7 0 10 -262144 -1 -1 0
1;
#X obj 296 363 route up down;
#X obj 333 386 tgl 15 0 empty empty empty 17 7 0 10 -262144 -1 -1 0
1;
#X obj 339 338 tgl 15 0 empty empty empty 17 7 0 10 -262144 -1 -1 0
1;
#X obj 30 218 tickle~;
#X msg 46 87 info;
#X obj 211 312 route pos rotary button touch;
#X obj 211 282 print tickletilde;
#X obj 211 259 spigot 0;
#X obj 256 234 tgl 15 0 empty empty empty 17 7 0 10 -262144 -1 -1 0
1;
#X obj 211 489 unpack f f f;
#X text 297 513 x \, y \, (z);
#X obj 30 23 loadbang;
#X obj 536 431 print debug;
#X obj 435 393 tickle~ debug;
#X obj 435 357 tgl 15 0 empty empty empty 17 7 0 10 -262144 -1 -1 0
1;
#X obj 468 483 env~;
#X obj 468 459 *~ 0.7;
#X floatatom 468 508 5 0 0 0 - - -, f 5;
#X obj 71 389 writesf~;
#X msg 109 337 start;
#X msg 114 359 stop;
#X msg 93 309 open out.wav;
#X obj 31 516 dac~;
#X obj 433 484 dac~;
#X obj 434 459 *~ 4;
#X obj 30 428 *~ 4;
#X obj 255 16 vsl 15 99 0 1 0 0 empty empty empty 0 -9 0 10 -4034 -1
-1 2700 1;
#X obj 293 16 vsl 15 99 0 1 0 0 empty empty empty 0 -9 0 10 -4160 -1
-1 5600 1;
#X obj 217 16 vsl 15 99 0 1 0 0 empty empty empty 0 -9 0 10 -258113
-1 -1 1200 1;
#X obj 217 124 t b f;
#X obj 293 124 t b f;
#X obj 255 124 t b f;
#X obj 166 159 pack f f f f;
#X obj 166 103 hradio 15 1 0 3 empty empty LED 0 -8 0 10 -262144 -1
-1 2;
#X msg 166 186 led \$1 \$2 \$3 \$4;
#X obj 119 35 hradio 15 1 0 5 empty empty empty 0 -8 0 10 -262144 -1
-1 0;
#X msg 119 55 dim \$1;
#X msg 442 62 \; pd dsp \$1 \;;
#X obj 442 41 tgl 15 0 empty empty empty 17 7 0 10 -262144 -1 -1 1
1;
#X connect 0 0 14 0;
#X connect 1 0 2 0;
#X connect 5 0 6 0;
#X connect 5 1 7 0;
#X connect 5 2 8 0;
#X connect 9 0 20 0;
#X connect 11 0 10 0;
#X connect 11 1 12 0;
#X connect 14 0 29 0;
#X connect 14 0 36 0;
#X connect 14 1 16 0;
#X connect 14 1 18 0;
#X connect 15 0 14 0;
#X connect 16 0 9 0;
#X connect 16 1 5 0;
#X connect 16 2 11 0;
#X connect 16 3 13 0;
#X connect 18 0 17 0;
#X connect 19 0 18 1;
#X connect 20 0 3 0;
#X connect 20 1 4 0;
#X connect 22 0 0 0;
#X connect 24 0 27 0;
#X connect 24 0 35 0;
#X connect 25 0 24 0;
#X connect 26 0 28 0;
#X connect 27 0 26 0;
#X connect 30 0 29 0;
#X connect 31 0 29 0;
#X connect 32 0 29 0;
#X connect 35 0 34 0;
#X connect 36 0 1 0;
#X connect 36 0 33 0;
#X connect 37 0 42 0;
#X connect 38 0 41 0;
#X connect 39 0 40 0;
#X connect 40 0 43 0;
#X connect 40 1 43 1;
#X connect 41 0 43 0;
#X connect 41 1 43 3;
#X connect 42 0 43 0;
#X connect 42 1 43 2;
#X connect 43 0 45 0;
#X connect 44 0 43 0;
#X connect 45 0 14 0;
#X connect 46 0 47 0;
#X connect 47 0 14 0;
#X connect 49 0 48 0;
