#N canvas 1003 178 673 563 10;
#X obj 30 48 tgl 15 0 empty empty empty 17 7 0 10 -262144 -1 -1 1 1
;
#X obj 66 493 env~;
#X floatatom 66 518 5 0 0 0 - - -, f 5;
#X floatatom 211 514 5 0 0 0 - - -, f 5;
#X floatatom 247 514 5 0 0 0 - - -, f 5;
#X obj 253 410 route 0 1 2;
#X floatatom 253 436 5 0 0 0 - - -, f 5;
#X floatatom 288 436 5 0 0 0 - - -, f 5;
#X floatatom 322 437 5 0 0 0 - - -, f 5;
#X obj 211 464 route 0;
#X obj 296 386 tgl 15 0 empty empty empty 17 7 0 10 -262144 -1 -1 0
1;
#X obj 296 363 route up down;
#X obj 333 386 tgl 15 0 empty empty empty 17 7 0 10 -262144 -1 -1 0
1;
#X obj 30 218 tickle~;
#X msg 46 87 info;
#X obj 211 312 route pos rotary button touch;
#X obj 211 282 print tickletilde;
#X obj 211 259 spigot 0;
#X obj 256 234 tgl 15 0 empty empty empty 17 7 0 10 -262144 -1 -1 0
1;
#X obj 211 489 unpack f f f;
#X text 297 513 x \, y \, (z);
#X obj 30 23 loadbang;
#X obj 510 427 print debug;
#X obj 435 393 tickle~ debug;
#X obj 435 357 tgl 15 0 empty empty empty 17 7 0 10 -262144 -1 -1 0
1;
#X obj 102 394 unpack f f f;
#X text 188 418 x \, y \, (z);
#X obj 53 22 loadbang;
#X obj 204 451 print y;
#X obj 620 516 print debug;
#X obj 492 420 tickle~ debug, f 29;
#X obj 500 384 tgl 15 0 empty empty empty 17 7 0 10 -262144 -1 -1 0
1;
#X obj 494 539 env~;
#X obj 494 505 *~ 0.7;
#X floatatom 494 564 5 0 0 0 - - -, f 5;
#X obj 106 607 writesf~;
#X msg 189 644 start;
#X msg 250 641 stop;
#X msg 124 556 open out.wav;
#X obj 22 570 dac~;
#X obj 551 551 dac~;
#X obj 556 503 *~ 4;
#X msg 664 20 \; pd dsp 1 \;;
#X msg 758 23 \; pd dsp 0 \;;
#X obj 62 447 *~ 4;
#X obj 473 23 vsl 15 128 0 1 0 0 empty empty empty 0 -9 0 10 -4034
-1 -1 0 1;
#X obj 517 23 vsl 15 128 0 1 0 0 empty empty empty 0 -9 0 10 -4160
-1 -1 0 1;
#X obj 426 23 vsl 15 128 0 1 0 0 empty empty empty 0 -9 0 10 -258113
-1 -1 0 1;
#X obj 427 186 t b f;
#X obj 512 187 t b f;
#X obj 469 187 t b f;
#X obj 371 236 pack f f f f;
#X obj 345 154 hradio 15 1 0 3 empty empty empty 0 -8 0 10 -262144
-1 -1 2;
#X msg 378 302 led \$1 \$2 \$3 \$4;
#X obj 209 47 hradio 15 1 0 5 empty empty empty 0 -8 0 10 -262144 -1
-1 4;
#X msg 208 84 dim \$1;
#X obj 145 494 print x;
#X connect 0 0 14 0;
#X connect 1 0 2 0;
#X connect 3 0 51 0;
#X connect 4 0 23 0;
#X connect 5 0 6 0;
#X connect 5 1 7 0;
#X connect 5 2 8 0;
#X connect 9 0 19 0;
#X connect 11 0 10 0;
#X connect 11 1 12 0;
#X connect 13 0 28 0;
#X connect 13 0 35 0;
#X connect 13 1 15 0;
#X connect 13 1 17 0;
#X connect 14 0 13 0;
#X connect 15 0 9 0;
#X connect 15 1 5 0;
#X connect 15 2 11 0;
#X connect 15 3 49 0;
#X connect 17 0 16 0;
#X connect 18 0 17 1;
#X connect 19 0 3 0;
#X connect 19 1 4 0;
#X connect 21 0 0 0;
#X connect 23 0 26 0;
#X connect 23 0 34 0;
#X connect 24 0 23 0;
#X connect 25 0 27 0;
#X connect 26 0 25 0;
#X connect 29 0 28 0;
#X connect 30 0 28 0;
#X connect 31 0 28 0;
#X connect 34 0 33 0;
#X connect 35 0 1 0;
#X connect 35 0 32 0;
#X connect 36 0 41 0;
#X connect 37 0 40 0;
#X connect 38 0 39 0;
#X connect 39 0 42 0;
#X connect 39 1 42 1;
#X connect 40 0 42 0;
#X connect 40 1 42 3;
#X connect 41 0 42 0;
#X connect 41 1 42 2;
#X connect 42 0 44 0;
#X connect 43 0 42 0;
#X connect 44 0 13 0;
#X connect 45 0 46 0;
#X connect 46 0 13 0;
#X connect 48 0 47 0;
