#N canvas 627 244 848 857 10;
#X declare -lib pddp;
#X obj 19 483 cnv 15 540 40 empty empty empty 20 12 0 14 -103858 -66577
0;
#X obj 19 528 cnv 15 540 40 empty empty empty 20 12 0 14 -161266 -66577
0;
#X obj 19 573 cnv 15 540 40 empty empty empty 20 12 0 14 -206578 -66577
0;
#N canvas 4 579 453 298 META 0;
#X text 40 153 LIBRARY internal;
#X text 39 113 OUTLET_0 signal;
#X text 38 16 KEYWORDS tickle hardware;
#X text 38 36 LICENSE GPLv3;
#X text 39 133 OUTLET_1 data;
#X text 40 173 AUTHOR Sebastian Stang;
#X text 40 233 HELP_PATCH_AUTHORS Max Neupert;
#X text 40 213 RELEASE_DATE 2018;
#X text 40 193 WEBSITE https://chair.audio;
#X text 38 92 INLET_0 active info;
#X text 38 56 DESCRIPTION Tickle hardware vibration sensor controller
instrument;
#X obj 285 14 declare -lib pddp;
#X restore 413 816 pd META;
#X obj 18 147 cnv 15 80 40 empty empty empty 20 12 0 14 -252850 -66577
0;
#X obj 218 266 cnv 15 340 25 empty empty empty 20 12 0 14 -262130 -66577
0;
#X obj 106 365 cnv 15 450 70 empty empty empty 20 12 0 14 -262130 -66577
0;
#X obj 31 76 tgl 15 0 empty empty empty 17 7 0 10 -262144 -1 -1 0 1
;
#X floatatom 123 417 6 0 0 1 x - #0-x;
#X floatatom 180 417 6 0 0 1 y - #0-y;
#X obj 176 295 route 0 1 2;
#X floatatom 176 322 5 0 0 0 - - -;
#X obj 123 369 route 0;
#X obj 70 463 tgl 15 0 empty empty up 17 7 0 10 -262144 -1 -1 0 1;
#X obj 70 442 route up down;
#X obj 107 463 tgl 15 0 empty empty down 17 7 0 10 -262144 -1 -1 0
1;
#X msg 51 102 info;
#X obj 91 212 print tickletilde;
#X obj 91 191 spigot 0;
#X obj 136 173 tgl 15 0 empty empty empty 17 7 0 10 -262144 -1 -1 0
1;
#X obj 102 623 vsl 15 59 -30 30 0 1 empty \$0-main dB_Gain -45 25 0
10 -262144 -1 -1 2900 1;
#N canvas 1100 627 735 338 feedback-cancellation 0;
#X obj 38 15 inlet~;
#X obj 38 242 outlet~;
#X obj 72 100 hilbert~;
#X floatatom 140 107 5 0 0 0 - - -;
#X obj 71 128 complex-mod~;
#X msg 140 84 50;
#X obj 140 61 loadbang;
#X obj 214 58 inlet;
#X obj 38 211 *~ 1;
#X obj 72 211 *~ 0;
#X obj 130 181 == 0;
#X text 290 187 hilbert~ and complex-mod~ are abstractions which come
with Vanilla Pd. You can find them in the "extra" folder of Pd.;
#X text 289 91 If there is acoustc feedback \, activate this subpatch.
;
#X text 290 134 It performs a uniform frequency shift (not a pitch
shift) which is efficiently removing feedback.;
#X text 288 50 The audio output through speakers may be picked up by
the Tickle and sometimes issues with feedback occur.;
#X obj 71 59 hip~ 4;
#X connect 0 0 8 0;
#X connect 0 0 15 0;
#X connect 2 0 4 0;
#X connect 2 1 4 1;
#X connect 3 0 4 2;
#X connect 4 0 9 0;
#X connect 5 0 3 0;
#X connect 6 0 5 0;
#X connect 7 0 9 1;
#X connect 7 0 10 0;
#X connect 8 0 1 0;
#X connect 9 0 1 0;
#X connect 10 0 8 1;
#X connect 15 0 2 0;
#X restore 31 547 pd feedback-cancellation;
#N canvas 1019 536 775 588 diagnostic 0;
#X obj 18 15 inlet~;
#X obj 20 533 outlet~;
#N canvas 1 681 450 300 (subpatch) 0;
#X array \$0-waveform 250 float 4;
#X coords 0 1 249 -1 250 122 1;
#X restore 161 203 graph;
#N canvas 1 681 450 300 (subpatch) 0;
#X array \$0-env 250 float 4;
#X coords 0 12 249 -65 250 122 1 0 0;
#X restore 161 348 graph;
#X text 413 257 0;
#X text 412 318 -1;
#X text 416 199 1;
#X obj 112 349 vu 15 120 empty empty -1 -8 0 10 -66577 -1 1 0;
#X floatatom 37 347 5 0 0 0 - - -;
#N canvas 733 594 466 330 draw_envelope 0;
#X obj 32 193 list;
#X obj 32 239 list trim;
#X obj 32 263 s \$0-env;
#X obj 32 215 list prepend 0;
#X obj 53 167 list split 250;
#X obj 15 59 - 100;
#X obj 15 14 inlet~;
#X obj 232 295 outlet peak;
#X obj 15 289 outlet dB;
#X obj 15 37 env~ 64;
#X obj 232 240 f;
#X msg 379 233 -110;
#X obj 232 158 sig~;
#X obj 379 208 delay 400;
#X obj 232 180 threshold~ -30 20 0.1 500;
#X obj 15 79 t a a a a;
#X connect 0 0 3 0;
#X connect 0 0 4 0;
#X connect 1 0 2 0;
#X connect 3 0 1 0;
#X connect 4 0 0 1;
#X connect 4 2 0 1;
#X connect 5 0 15 0;
#X connect 6 0 9 0;
#X connect 9 0 5 0;
#X connect 10 0 7 0;
#X connect 11 0 7 0;
#X connect 12 0 14 0;
#X connect 13 0 11 0;
#X connect 14 0 10 0;
#X connect 14 1 13 0;
#X connect 15 0 8 0;
#X connect 15 1 0 0;
#X connect 15 2 10 1;
#X connect 15 3 12 0;
#X restore 37 309 pd draw_envelope;
#N canvas 2909 548 685 568 draw_waveform 0;
#X obj 29 184 list;
#X obj 29 230 list trim;
#X obj 29 206 list prepend 0;
#X obj 29 254 s \$0-waveform;
#X obj 50 163 list split 250;
#X obj 29 130 snapshot~;
#X obj 80 90 metro 1;
#X obj 80 28 loadbang;
#X obj 30 28 inlet~;
#X msg 80 48 1;
#X obj 80 71 tgl 15 0 empty empty empty 17 7 0 10 -262144 -1 -1 1 1
;
#X connect 0 0 2 0;
#X connect 0 0 4 0;
#X connect 1 0 3 0;
#X connect 2 0 1 0;
#X connect 4 0 0 1;
#X connect 4 2 0 1;
#X connect 5 0 0 0;
#X connect 6 0 5 0;
#X connect 7 0 9 0;
#X connect 8 0 5 0;
#X connect 9 0 10 0;
#X connect 10 0 6 0;
#X restore 51 204 pd draw_waveform;
#X text 414 462 -65;
#X text 414 341 +12;
#X text 92 524 Note: The envelope table is linear while the VU meter
isn't \, hence the discrepancy between the scaling of the two.;
#X obj 91 37 vsl 15 59 -30 30 0 1 empty \$0-gain dB_Gain -45 25 0 10
-262144 -1 -1 2900 1;
#X floatatom 91 105 5 0 0 0 dB - -;
#N canvas 643 302 338 612 gain 0;
#X obj 32 26 inlet~;
#X obj 33 373 outlet~;
#X obj 84 240 line~;
#X msg 84 217 \$1 10;
#X obj 31 273 *~;
#X obj 84 27 inlet;
#X obj 84 60 / 20;
#X obj 84 82 t b f;
#X obj 84 128 pow;
#X msg 84 107 10;
#X obj 32 298 clip~ -1 1;
#X obj 84 149 moses 0.04;
#X obj 84 169 t b;
#X msg 84 190 0;
#X obj 194 327 -~;
#X obj 193 350 threshold~ 0 10 0 10;
#X text 192 402 clipping warner;
#X obj 193 374 outlet clipping;
#X obj 141 220 outlet amplitude;
#X connect 0 0 4 0;
#X connect 2 0 4 1;
#X connect 3 0 2 0;
#X connect 4 0 10 0;
#X connect 4 0 14 1;
#X connect 5 0 6 0;
#X connect 6 0 7 0;
#X connect 7 0 9 0;
#X connect 7 1 8 1;
#X connect 8 0 11 0;
#X connect 9 0 8 0;
#X connect 10 0 1 0;
#X connect 10 0 14 0;
#X connect 11 0 12 0;
#X connect 11 1 3 0;
#X connect 11 1 18 0;
#X connect 12 0 13 0;
#X connect 13 0 3 0;
#X connect 13 0 18 0;
#X connect 14 0 15 0;
#X connect 15 0 17 0;
#X restore 19 104 pd gain;
#X obj 58 124 bng 15 250 50 0 empty empty clipping 18 9 0 10 -262144
-258113 -1;
#X text 104 57 -> 0;
#X text 103 89 -> -30;
#X text 104 26 -> +30;
#N canvas 129 574 629 448 48kHz 0;
#X obj 36 28 inlet~;
#X obj 37 399 outlet~;
#X obj 120 341 writesf~;
#X msg 120 250 start;
#X msg 494 252 stop;
#X obj 101 124 tgl 15 0 empty empty empty 17 7 0 10 -258113 -262144
-1 0 1;
#X obj 164 227 f;
#X obj 193 227 + 1;
#X obj 101 183 sel 1 0;
#X obj 467 219 t b b;
#X obj 467 301 symbol;
#X obj 164 251 makefilename /tmp/tickle_raw_recording_%d.wav;
#X obj 467 328 list trim;
#X obj 467 362 print audio saved to;
#X obj 101 394 delay 120000;
#X obj 101 206 t b b b;
#X msg 50 235 0;
#X text 185 394 maximum length of recording: 2 minutes;
#X text 118 122 record;
#X msg 164 277 open -rate 48000 -bytes 2 \$1;
#X connect 0 0 1 0;
#X connect 0 0 2 0;
#X connect 3 0 2 0;
#X connect 4 0 2 0;
#X connect 4 0 14 0;
#X connect 5 0 8 0;
#X connect 6 0 7 0;
#X connect 6 0 11 0;
#X connect 7 0 6 1;
#X connect 8 0 15 0;
#X connect 8 1 9 0;
#X connect 9 0 10 0;
#X connect 9 1 4 0;
#X connect 10 0 12 0;
#X connect 11 0 19 0;
#X connect 11 0 10 1;
#X connect 12 0 13 0;
#X connect 14 0 16 0;
#X connect 15 0 14 0;
#X connect 15 1 3 0;
#X connect 15 2 6 0;
#X connect 16 0 5 0;
#X connect 19 0 2 0;
#X coords 0 -1 1 1 58 40 1 100 100;
#X restore 36 149 pd 48kHz;
#X text 99 147 Record audio here. A 16 bit 48kHz audio file will be
saved to /tmp/;
#N canvas 0 50 450 300 (subpatch) 0;
#X array \$0-x-axis 100 float 2;
#X coords 0 1 100 0 200 140 1 0 0;
#X restore 500 182 graph;
#N canvas 0 50 450 300 (subpatch) 0;
#X array \$0-y-axis 100 float 2;
#X coords 0 0 100 1 200 140 1 0 0;
#X restore 499 347 graph;
#N canvas 396 646 353 241 plot-pos 0;
#X obj 57 107 list;
#X obj 57 156 list trim;
#X obj 57 129 list prepend 0;
#X obj 80 76 list split 100;
#X obj 200 107 list;
#X obj 200 156 list trim;
#X obj 200 129 list prepend 0;
#X obj 223 76 list split 100;
#X obj 19 9 r \$0-x;
#X obj 57 182 s \$0-x-axis;
#X obj 200 182 s \$0-y-axis;
#X obj 161 10 r \$0-y;
#X obj 161 36 moses 0;
#X obj 18 37 moses 0;
#X connect 0 0 2 0;
#X connect 0 0 3 0;
#X connect 1 0 9 0;
#X connect 2 0 1 0;
#X connect 3 0 0 1;
#X connect 3 2 0 1;
#X connect 4 0 6 0;
#X connect 4 0 7 0;
#X connect 5 0 10 0;
#X connect 6 0 5 0;
#X connect 7 0 4 1;
#X connect 7 2 4 1;
#X connect 8 0 13 0;
#X connect 11 0 12 0;
#X connect 12 1 4 0;
#X connect 13 1 0 0;
#X restore 628 150 pd plot-pos;
#X text 707 312 left;
#X text 708 175 right;
#X text 707 341 top;
#X text 706 478 bottom;
#X connect 0 0 16 0;
#X connect 9 0 8 0;
#X connect 9 0 7 0;
#X connect 9 1 7 1;
#X connect 14 0 16 1;
#X connect 14 0 15 0;
#X connect 16 0 1 0;
#X connect 16 0 21 0;
#X connect 16 2 17 0;
#X connect 21 0 10 0;
#X connect 21 0 9 0;
#X restore 32 497 pd diagnostic;
#X obj 172 529 tgl 15 0 empty empty empty 17 7 0 10 -262144 -1 -1 0
1;
#X text 110 585 <--- here is where the sound synthesis would happen
(see examples), f 68;
#X obj 31 161 tickle~;
#N canvas 325 400 432 210 slidr 0;
#X obj 105 121 hsl 48 15 0 1 0 0 empty empty empty -2 -8 0 10 -262144
-1 -1 0 1;
#X obj 175 3 inlet;
#X obj 175 72 + 1;
#X obj 175 46 f;
#X obj 175 24 t b f;
#X obj 175 97 mod 24;
#X obj 175 120 / 24;
#X connect 1 0 4 0;
#X connect 2 0 5 0;
#X connect 3 0 2 0;
#X connect 4 0 3 0;
#X connect 4 1 2 1;
#X connect 5 0 3 1;
#X connect 5 0 6 0;
#X connect 6 0 0 0;
#X coords 0 -1 1 1 58 40 1 100 100;
#X restore 213 321 pd slidr;
#N canvas 30 365 600 496 clrwl 0;
#N canvas 416 439 393 665 hsv2rgb 0;
#X msg 48 59 \$2 \$3 \$1;
#X text 108 60 svh;
#X obj 48 31 inlet hsv;
#X obj 48 604 outlet rgb;
#X obj 324 206 * 6;
#X obj 306 252 % 6;
#X obj 279 230 t f f;
#X msg 279 206 0;
#X text 332 252 i;
#X obj 268 293 -;
#X obj 48 486 *;
#X obj 48 410 - 1;
#X obj 48 430 * -1;
#X obj 79 488 *;
#X obj 79 410 - 1;
#X obj 79 430 * -1;
#X obj 79 388 *;
#X obj 268 314 t f f;
#X obj 295 336 - 1;
#X obj 295 357 * -1;
#X obj 112 487 *;
#X obj 112 412 - 1;
#X obj 112 432 * -1;
#X obj 112 390 *;
#X obj 48 359 t f f f;
#N canvas 372 247 646 576 select 0;
#X obj 16 497 outlet;
#X obj 16 76 t b l;
#X obj 16 41 inlet p q t v;
#X obj 16 128 i;
#X obj 16 151 select 0 1 2 3 4 5;
#X obj 16 350 f;
#X obj 96 350 f;
#X obj 176 350 f;
#X obj 256 350 f;
#X obj 331 350 f;
#X obj 404 349 f;
#X obj 171 153 unpack f f f f, f 41;
#X obj 16 370 pack f f f;
#X obj 96 370 pack f f f;
#X obj 176 370 pack f f f;
#X obj 256 370 pack f f f;
#X obj 331 370 pack f f f;
#X obj 404 372 pack f f f;
#X obj 290 37 inlet select;
#X connect 1 0 3 0;
#X connect 1 1 11 0;
#X connect 2 0 1 0;
#X connect 3 0 4 0;
#X connect 4 0 5 0;
#X connect 4 1 6 0;
#X connect 4 2 7 0;
#X connect 4 3 8 0;
#X connect 4 4 9 0;
#X connect 4 5 10 0;
#X connect 5 0 12 0;
#X connect 6 0 13 0;
#X connect 7 0 14 0;
#X connect 8 0 15 0;
#X connect 9 0 16 0;
#X connect 10 0 17 0;
#X connect 11 0 7 1;
#X connect 11 0 8 1;
#X connect 11 0 12 2;
#X connect 11 0 13 2;
#X connect 11 0 16 1;
#X connect 11 0 17 1;
#X connect 11 1 6 1;
#X connect 11 1 15 1;
#X connect 11 1 17 2;
#X connect 11 2 9 1;
#X connect 11 2 12 1;
#X connect 11 2 14 2;
#X connect 11 3 5 1;
#X connect 11 3 10 1;
#X connect 11 3 13 1;
#X connect 11 3 14 1;
#X connect 11 3 16 2;
#X connect 11 3 15 2;
#X connect 12 0 0 0;
#X connect 13 0 0 0;
#X connect 14 0 0 0;
#X connect 15 0 0 0;
#X connect 16 0 0 0;
#X connect 17 0 0 0;
#X connect 18 0 3 1;
#X restore 48 561 pd select;
#X f 48;
#X obj 48 167 clip 0 1;
#X obj 188 165 clip 0 1;
#X obj 279 166 clip 0 1;
#X obj 279 186 select 1;
#X obj 188 423 t f f f f;
#X obj 48 537 pack f f f f;
#X obj 306 272 t f f;
#X obj 79 513 abs;
#X obj 112 512 abs;
#X obj 48 513 abs;
#X obj 48 109 unpack f f f;
#X connect 0 0 36 0;
#X connect 2 0 0 0;
#X connect 4 0 6 0;
#X connect 5 0 32 0;
#X connect 6 0 9 0;
#X connect 6 1 5 0;
#X connect 7 0 6 0;
#X connect 9 0 17 0;
#X connect 10 0 35 0;
#X connect 11 0 12 0;
#X connect 12 0 10 0;
#X connect 13 0 33 0;
#X connect 14 0 15 0;
#X connect 15 0 13 0;
#X connect 16 0 14 0;
#X connect 17 0 16 1;
#X connect 17 1 18 0;
#X connect 18 0 19 0;
#X connect 19 0 23 1;
#X connect 20 0 34 0;
#X connect 21 0 22 0;
#X connect 22 0 20 0;
#X connect 23 0 21 0;
#X connect 24 0 11 0;
#X connect 24 1 16 0;
#X connect 24 2 23 0;
#X connect 25 0 3 0;
#X connect 26 0 24 0;
#X connect 27 0 30 0;
#X connect 28 0 29 0;
#X connect 29 0 7 0;
#X connect 29 1 4 0;
#X connect 30 0 10 1;
#X connect 30 1 13 1;
#X connect 30 2 20 1;
#X connect 30 3 31 3;
#X connect 31 0 25 0;
#X connect 32 0 9 1;
#X connect 32 1 25 1;
#X connect 33 0 31 1;
#X connect 34 0 31 2;
#X connect 35 0 31 0;
#X connect 36 0 26 0;
#X connect 36 1 27 0;
#X connect 36 2 28 0;
#X restore 184 196 pd hsv2rgb;
#X msg 184 170 \$1 1 1;
#N canvas 2004 397 649 676 rgb2pd 0;
#X obj 56 73 inlet;
#X obj 56 445 outlet;
#X obj 171 270 t b f;
#X obj 115 310 +;
#X obj 115 335 t b f;
#X obj 56 393 +;
#X obj 56 246 * -65536;
#X obj 56 418 - 1;
#X obj 56 100 unpack f f f;
#X floatatom 64 221 3 0 255 2 red - -;
#X floatatom 123 222 3 0 255 2 green - -;
#X floatatom 179 223 3 0 255 2 blue - -;
#X obj 56 134 * 255;
#X obj 115 134 * 255;
#X obj 115 247 * -256;
#X obj 171 134 * 255;
#X obj 171 248 * -1;
#X obj 56 157 int;
#X obj 115 157 int;
#X obj 171 158 int;
#X connect 0 0 8 0;
#X connect 2 0 3 0;
#X connect 2 1 3 1;
#X connect 3 0 4 0;
#X connect 4 0 5 0;
#X connect 4 1 5 1;
#X connect 5 0 7 0;
#X connect 6 0 5 0;
#X connect 7 0 1 0;
#X connect 8 0 12 0;
#X connect 8 1 13 0;
#X connect 8 2 15 0;
#X connect 9 0 6 0;
#X connect 10 0 14 0;
#X connect 11 0 16 0;
#X connect 12 0 17 0;
#X connect 13 0 18 0;
#X connect 14 0 3 0;
#X connect 15 0 19 0;
#X connect 16 0 2 0;
#X connect 17 0 6 0;
#X connect 18 0 14 0;
#X connect 19 0 16 0;
#X restore 184 340 pd rgb2pd;
#X obj 102 121 cnv 15 52 15 empty \$0-wheel rotary 5 7 0 11 -241601
-262144 0;
#X obj 184 9 inlet;
#X obj 184 94 + 1;
#X obj 184 65 f;
#X obj 184 37 t b f;
#X obj 215 281 unpack f f f;
#X floatatom 215 307 4 0 0 0 - - -;
#X floatatom 249 307 4 0 0 0 - - -;
#X floatatom 284 307 4 0 0 0 - - -;
#X floatatom 215 387 15 0 0 0 - - -;
#X msg 184 445 \; \$2-wheel color \$1 0 0;
#X obj 184 422 pack f \$0;
#X obj 222 241 s \$0-clrwl;
#X text 294 241 send to LED color control for visual feedback;
#X obj 184 117 mod 100;
#X obj 184 144 / 100;
#X connect 0 0 8 0;
#X connect 0 0 2 0;
#X connect 0 0 15 0;
#X connect 1 0 0 0;
#X connect 2 0 12 0;
#X connect 2 0 14 0;
#X connect 4 0 7 0;
#X connect 5 0 17 0;
#X connect 6 0 5 0;
#X connect 7 0 6 0;
#X connect 7 1 5 1;
#X connect 8 0 9 0;
#X connect 8 1 10 0;
#X connect 8 2 11 0;
#X connect 14 0 13 0;
#X connect 17 0 6 1;
#X connect 17 0 18 0;
#X connect 18 0 1 0;
#X coords 0 -1 1 1 58 40 1 100 100;
#X restore 273 321 pd clrwl;
#X obj 176 343 bng 15 50 10 0 empty empty empty 17 7 0 10 -262144 -1
-1;
#X floatatom 102 691 5 0 0 0 dB - -;
#N canvas 3194 353 338 612 gain 0;
#X obj 32 26 inlet~;
#X obj 33 373 outlet~;
#X obj 84 240 line~;
#X msg 84 217 \$1 10;
#X obj 31 273 *~;
#X obj 84 27 inlet;
#X obj 84 60 / 20;
#X obj 84 82 t b f;
#X obj 84 128 pow;
#X msg 84 107 10;
#X obj 32 298 clip~ -1 1;
#X obj 84 149 moses 0.04;
#X obj 84 169 t b;
#X msg 84 190 0;
#X obj 194 327 -~;
#X obj 193 350 threshold~ 0 10 0 10;
#X text 192 402 clipping warner;
#X obj 193 374 outlet clipping;
#X obj 141 220 outlet amplitude;
#X connect 0 0 4 0;
#X connect 2 0 4 1;
#X connect 3 0 2 0;
#X connect 4 0 10 0;
#X connect 4 0 14 1;
#X connect 5 0 6 0;
#X connect 6 0 7 0;
#X connect 7 0 9 0;
#X connect 7 1 8 1;
#X connect 8 0 11 0;
#X connect 9 0 8 0;
#X connect 10 0 1 0;
#X connect 10 0 14 0;
#X connect 11 0 12 0;
#X connect 11 1 3 0;
#X connect 11 1 18 0;
#X connect 12 0 13 0;
#X connect 13 0 3 0;
#X connect 13 0 18 0;
#X connect 14 0 15 0;
#X connect 15 0 17 0;
#X restore 30 690 pd gain;
#X obj 123 396 unpack f f;
#X text 226 458 button pressed: 1 \, button released: 0;
#X text 350 341 360° rotation are 24 ticks;
#X text 205 446 Buttons;
#X text 88 102 Prints out information about the connected hardware
;
#X text 325 299 Rotary controller;
#X text 57 75 1 starts polling data \, 0 stops it.;
#N canvas 175 211 475 752 LED 0;
#X obj 30 710 outlet;
#X obj 138 247 vsl 15 99 0 1 0 0 empty empty empty 0 -9 0 10 -258113
-1 -1 0 1;
#X obj 154 247 vsl 15 99 0 1 0 0 empty empty empty 0 -9 0 10 -4034
-1 -1 0 1;
#X obj 170 247 vsl 15 99 0 1 0 0 empty empty empty 0 -9 0 10 -4160
-1 -1 0 1;
#X obj 60 334 hradio 15 1 0 3 empty empty empty 0 -8 0 10 -262144 -1
-1 0;
#X obj 60 386 pack f f f f;
#X obj 138 357 t b f;
#X obj 212 357 t b f;
#X obj 175 357 t b f;
#X msg 60 409 led \$1 \$2 \$3 \$4;
#X msg 29 152 led 0 1 0 0;
#X msg 47 185 led 1 0 0.5 0.5;
#X obj 69 483 vsl 15 99 0 1 0 0 empty empty empty 0 -9 0 10 -228856
-1 -1 0 1;
#X text 20 19 Control the RGB LED on the Tickle;
#X text 24 116 Examples:;
#X text 25 41 Syntax: Message 'led ID R G B';
#X text 59 59 ID: 0 \, 1 or 2;
#X text 60 73 RGB: float 0 to 1;
#X text 58 306 LED ID;
#X obj 98 638 r \$0-clrwl;
#X msg 98 666 led 2 \$1 \$2 \$3;
#X msg 69 591 led 1 \$1 \$1 \$1;
#X text 190 639 Control color with the rotary encoder;
#X text 187 567 Set white brightness of center LED;
#X text 273 337 Set color with RGB mixer;
#X text 126 150 Set left LED to red;
#X text 151 186 Set center LED to bright cyan;
#X connect 1 0 6 0;
#X connect 2 0 8 0;
#X connect 3 0 7 0;
#X connect 4 0 5 0;
#X connect 5 0 9 0;
#X connect 6 0 5 0;
#X connect 6 1 5 1;
#X connect 7 0 5 0;
#X connect 7 1 5 3;
#X connect 8 0 5 0;
#X connect 8 1 5 2;
#X connect 9 0 0 0;
#X connect 10 0 0 0;
#X connect 11 0 0 0;
#X connect 12 0 21 0;
#X connect 19 0 20 0;
#X connect 20 0 0 0;
#X connect 21 0 0 0;
#X restore 91 121 pd LED;
#N canvas 1193 698 593 158 synthesis 0;
#X obj 29 24 inlet~;
#X obj 29 47 outlet~;
#X text 128 22 This subpatch exist in this helpfile only to show where
the synthesis would happen in your patch. Please refer to the example
patches to see the synthesis in action.;
#X connect 0 0 1 0;
#X restore 31 587 pd synthesis;
#X text 157 173 Print all messages to console;
#X obj 69 710 bng 15 250 50 0 empty empty clipping 18 9 0 10 -262144
-258113 -1;
#X text 115 643 -> 0;
#X text 114 675 -> -30;
#X text 114 613 -> +30;
#N canvas 1291 646 450 300 set 0;
#X obj 146 16 loadbang;
#X obj 146 121 s \$0-main;
#X msg 146 55 0;
#X obj 157 92 s \$0-gain;
#X connect 0 0 2 0;
#X connect 2 0 1 0;
#X connect 2 0 3 0;
#X restore 496 738 pd set;
#X obj 20 728 cnv 15 540 40 empty empty empty 20 12 0 14 -255794 -66577
0;
#X obj 31 770 dac~;
#X obj 31 739 hip~ 4;
#X text 191 535 Live situations or speakers on the same surface can
cause feedback. A cheap method to remove it is within., f 54;
#X obj 411 795 pddplink https://chair.audio;
#X text 28 789 ~~~~~~~~~~~~~~~~~~~~~~~~~~~~~~~~~~~~~~~~~~~~~~~~ The
Center for Haptic Audio Interaction Research 2018 ~~~~~~~~~~~~~~~~~~~~~~~
https://chair.audio ~~~~~~~~~~~~~~~~~~~~~~~~~~~~~~~~~~~~~~~~~~~~~~~~
, f 48;
#X text 29 35 The sampling rate in the hardware is 48 kHz. If possible
\, set the sampling rate of your system/Pd to 48 kHz with a blocksize
of 64, f 81;
#X text 28 10 A driver installation and the Tickle hardware are neccessary
to run this patch., f 80;
#X text 138 122 See inside this subpatch for LED color control;
#X text 89 734 It's good practice to protect the output from possible
DC-offset with a lowpass filter., f 70;
#X text 133 487 Here you will find some tools to visualize the audio
and data output of the object for better undserstanding and debugging.
, f 64;
#X floatatom 229 269 5 0 0 1 Samples - -;
#X text 310 264 Size of ringbuffer;
#X text 329 277 actual latency is around half of this;
#X text 228 376 Touch position on surface;
#X obj 571 43 cnv 15 270 800 empty empty empty 20 12 0 14 -228856 -66577
0;
#X obj 752 372 chair.gesture;
#X obj 601 709 chair.gain~;
#X obj 593 546 chair.feedback-cancellation~;
#X obj 591 397 chair.hex-mapping;
#X obj 591 419 chair.hex-tuning;
#X text 576 354 Process position data:;
#X obj 592 311 chair.rotary-limit-range;
#X text 577 290 Process rotary data:;
#X text 575 526 Remove feedback:;
#X text 573 149 Substitute for unavailable hardware:;
#X obj 594 597 chair.peak-hold~;
#X text 574 578 Envelope with zero latency:;
#X text 572 689 Gain control with clipping warner:;
#X obj 70 240 route button position rotary latency;
#X text 572 440 Use buttons to transpose:;
#X obj 591 457 chair.transpose-octave;
#X obj 589 170 faketickle~;
#X obj 594 668 chair.dynamics~;
#X text 574 649 Compressor and expander:;
#X text 580 789 A complete list of abstractions is in;
#X obj 603 810 chair.intro;
#X text 350 313 clockwise rotation: 1 \, counterclockwise: -1, f 23
;
#X text 267 392 range: 0 to 1 0 0 is in the left bottom of the surface
-1 if no touch is detected, f 41;
#X obj 591 373 chair.capsense;
#X text 574 49 This column introduces useful abstractions in the context
of the process left of it., f 43;
#X text 576 87 If these objects won't create you may want to add the
path to the search paths., f 42;
#X connect 7 0 25 0;
#X connect 10 0 11 0;
#X connect 10 1 26 0;
#X connect 10 2 27 0;
#X connect 11 0 28 0;
#X connect 12 0 31 0;
#X connect 14 0 13 0;
#X connect 14 1 15 0;
#X connect 16 0 25 0;
#X connect 18 0 17 0;
#X connect 19 0 18 1;
#X connect 20 0 30 1;
#X connect 20 0 29 0;
#X connect 21 0 39 0;
#X connect 22 0 21 0;
#X connect 23 0 21 1;
#X connect 25 0 22 0;
#X connect 25 1 75 0;
#X connect 25 1 18 0;
#X connect 30 0 48 0;
#X connect 30 2 41 0;
#X connect 31 0 8 0;
#X connect 31 1 9 0;
#X connect 38 0 25 0;
#X connect 39 0 30 0;
#X connect 48 0 47 0;
#X connect 48 0 47 1;
#X connect 75 0 14 0;
#X connect 75 1 12 0;
#X connect 75 2 10 0;
#X connect 75 3 57 0;
